<svg 
  width="37" height="37" viewBox="0 0 37 37" fill="none" id="logo-profile"
  xmlns="http://www.w3.org/2000/svg" xmlns:xlink="http://www.w3.org/2000/xlink"
>
  <path 
    id="logo-profile__path" d="M18.4999 0.583374C8.60992 0.583374 0.583252 8.61004 0.583252 18.5C0.583252 28.39 8.60992 36.4167 18.4999 36.4167C28.3899 36.4167 36.4166 28.39 36.4166 18.5C36.4166 8.61004 28.3899 0.583374 18.4999 0.583374ZM18.4999 5.95837C21.4741 5.95837 23.8749 8.35921 23.8749 11.3334C23.8749 14.3075 21.4741 16.7084 18.4999 16.7084C15.5258 16.7084 13.1249 14.3075 13.1249 11.3334C13.1249 8.35921 15.5258 5.95837 18.4999 5.95837ZM18.4999 31.4C14.0208 31.4 10.0612 29.1067 7.74992 25.6309C7.80367 22.0655 14.9166 20.1125 18.4999 20.1125C22.0653 20.1125 29.1962 22.0655 29.2499 25.6309C26.9387 29.1067 22.9791 31.4 18.4999 31.4Z" fill="#66DDF9"
  />
  <!-- <animate
    xlink:href="#logo-profile__path"
    begin="logoProfile_svg__a.mouseover"
    end="logoProfile_svg__a.mouseout"
    attributeName="fill" dur="1s"
    from="#66DDF9" to="#660009" fill="freeze"
  /> -->
</svg>