<svg width="187" height="50" viewBox="0 0 187 50" fill="none" xmlns="http://www.w3.org/2000/svg">
<path d="M53.68 5.424H57.424V11.568C58.128 11.568 58.696 11.44 59.128 11.184C59.56 10.912 60.032 10.4 60.544 9.648L63.472 5.424H67.672L64.312 10.104C63.8 10.824 63.328 11.376 62.896 11.76C62.48 12.128 61.96 12.432 61.336 12.672V12.72C62.136 12.912 62.8 13.256 63.328 13.752C63.872 14.248 64.4 14.968 64.912 15.912L67.672 21H63.472L60.928 16.416C60.592 15.808 60.264 15.352 59.944 15.048C59.64 14.728 59.296 14.512 58.912 14.4C58.528 14.288 58.032 14.232 57.424 14.232V21H53.68V5.424ZM69.4066 5.424H75.6466C77.1666 5.424 78.3666 5.528 79.2466 5.736C80.1426 5.944 80.7906 6.312 81.1906 6.84C81.6066 7.352 81.8146 8.072 81.8146 9V11.952C81.8146 12.976 81.5906 13.776 81.1426 14.352C80.7106 14.928 80.0146 15.336 79.0546 15.576C78.1106 15.816 76.8306 15.936 75.2146 15.936H73.1506V21H69.4066V5.424ZM75.5266 13.368C76.5026 13.368 77.1906 13.256 77.5906 13.032C77.9906 12.792 78.1906 12.392 78.1906 11.832V9.336C78.1906 8.824 77.9986 8.488 77.6146 8.328C77.2466 8.168 76.5346 8.088 75.4786 8.088H73.1506V13.368H75.5266ZM86.7094 21.24C86.1334 21.24 85.4374 21.16 84.6214 21V18.264C84.9574 18.344 85.2854 18.416 85.6054 18.48C85.9414 18.544 86.2614 18.576 86.5654 18.576C87.0134 18.576 87.3894 18.472 87.6934 18.264C88.0134 18.04 88.2854 17.704 88.5094 17.256L88.8454 16.56L82.8214 5.424H86.7334L90.6454 13.248H90.7414L93.8374 5.424H97.6054L91.9654 17.928C91.4534 19.08 90.8054 19.92 90.0214 20.448C89.2374 20.976 88.1334 21.24 86.7094 21.24ZM102.655 8.088H97.855V5.424H111.175V8.088H106.399V21H102.655V8.088ZM120.36 21.24C119.496 21.24 118.696 21.184 117.96 21.072C117.24 20.96 116.488 20.768 115.704 20.496C114.856 20.208 114.192 19.744 113.712 19.104C113.232 18.448 112.992 17.656 112.992 16.728V9.912C112.992 9.144 113.16 8.456 113.496 7.848C113.848 7.24 114.296 6.76 114.84 6.408C115.32 6.104 115.912 5.848 116.616 5.64C117.32 5.432 117.976 5.304 118.584 5.256C119.144 5.208 119.736 5.184 120.36 5.184C121.096 5.184 121.736 5.216 122.28 5.28C122.824 5.328 123.432 5.44 124.104 5.616C124.872 5.84 125.504 6.112 126 6.432C126.496 6.752 126.912 7.2 127.248 7.776C127.6 8.368 127.776 9.08 127.776 9.912V16.728C127.776 17.592 127.544 18.336 127.08 18.96C126.632 19.584 126.008 20.056 125.208 20.376C123.768 20.952 122.152 21.24 120.36 21.24ZM120.408 18.576C120.936 18.576 121.376 18.56 121.728 18.528C122.096 18.48 122.472 18.4 122.856 18.288C123.24 18.176 123.528 17.992 123.72 17.736C123.928 17.464 124.032 17.128 124.032 16.728V9.888C124.032 9.152 123.736 8.632 123.144 8.328C122.552 8.008 121.632 7.848 120.384 7.848C119.136 7.848 118.216 8 117.624 8.304C117.032 8.608 116.736 9.136 116.736 9.888V16.728C116.736 17.128 116.84 17.464 117.048 17.736C117.256 17.992 117.56 18.176 117.96 18.288C118.344 18.4 118.712 18.48 119.064 18.528C119.432 18.56 119.88 18.576 120.408 18.576ZM130.789 5.424H134.533V16.08L141.253 5.424H144.997V21H141.253V10.176L134.533 21H130.789V5.424ZM137.917 3.768C136.333 3.768 135.133 3.424 134.317 2.736C133.501 2.032 133.093 1.12 133.093 -1.43051e-06H136.093C136.173 0.687999 136.349 1.176 136.621 1.464C136.909 1.752 137.341 1.896 137.917 1.896C138.493 1.896 138.917 1.752 139.189 1.464C139.477 1.176 139.661 0.687999 139.741 -1.43051e-06H142.741C142.741 1.12 142.333 2.032 141.517 2.736C140.701 3.424 139.501 3.768 137.917 3.768ZM57.808 33.424H62.368L67.984 49H64.192L62.8 44.896H57.112L55.744 49H52.048L57.808 33.424ZM61.984 42.4L60.016 36.544H59.92L57.952 42.4H61.984ZM69.7113 33.424H80.1033V36.088H73.4553V49H69.7113V33.424ZM82.2738 33.424H88.5138C90.0338 33.424 91.2338 33.528 92.1138 33.736C93.0098 33.944 93.6578 34.312 94.0578 34.84C94.4738 35.352 94.6818 36.072 94.6818 37V39.952C94.6818 40.976 94.4578 41.776 94.0098 42.352C93.5778 42.928 92.8818 43.336 91.9218 43.576C90.9778 43.816 89.6978 43.936 88.0818 43.936H86.0178V49H82.2738V33.424ZM88.3938 41.368C89.3698 41.368 90.0578 41.256 90.4578 41.032C90.8578 40.792 91.0578 40.392 91.0578 39.832V37.336C91.0578 36.824 90.8658 36.488 90.4818 36.328C90.1138 36.168 89.4018 36.088 88.3458 36.088H86.0178V41.368H88.3938ZM97.3206 33.424H109.201V36.088H101.065V39.664H108.409V42.328H101.065V46.336H109.441V49H97.3206V33.424ZM111.969 33.424H122.361V36.088H115.713V49H111.969V33.424ZM128.66 33.424H133.22L138.836 49H135.044L133.652 44.896H127.964L126.596 49H122.9L128.66 33.424ZM132.836 42.4L130.868 36.544H130.772L128.804 42.4H132.836ZM144.163 36.088H139.363V33.424H152.683V36.088H147.907V49H144.163V36.088ZM161.868 49.24C161.004 49.24 160.204 49.184 159.468 49.072C158.748 48.96 157.996 48.768 157.212 48.496C156.364 48.208 155.7 47.744 155.22 47.104C154.74 46.448 154.5 45.656 154.5 44.728V37.912C154.5 37.144 154.668 36.456 155.004 35.848C155.356 35.24 155.804 34.76 156.348 34.408C156.828 34.104 157.42 33.848 158.124 33.64C158.828 33.432 159.484 33.304 160.092 33.256C160.652 33.208 161.244 33.184 161.868 33.184C162.604 33.184 163.244 33.216 163.788 33.28C164.332 33.328 164.94 33.44 165.612 33.616C166.38 33.84 167.012 34.112 167.508 34.432C168.004 34.752 168.42 35.2 168.756 35.776C169.108 36.368 169.284 37.08 169.284 37.912V44.728C169.284 45.592 169.052 46.336 168.588 46.96C168.14 47.584 167.516 48.056 166.716 48.376C165.276 48.952 163.66 49.24 161.868 49.24ZM161.916 46.576C162.444 46.576 162.884 46.56 163.236 46.528C163.604 46.48 163.98 46.4 164.364 46.288C164.748 46.176 165.036 45.992 165.228 45.736C165.436 45.464 165.54 45.128 165.54 44.728V37.888C165.54 37.152 165.244 36.632 164.652 36.328C164.06 36.008 163.14 35.848 161.892 35.848C160.644 35.848 159.724 36 159.132 36.304C158.54 36.608 158.244 37.136 158.244 37.888V44.728C158.244 45.128 158.348 45.464 158.556 45.736C158.764 45.992 159.068 46.176 159.468 46.288C159.852 46.4 160.22 46.48 160.572 46.528C160.94 46.56 161.388 46.576 161.916 46.576ZM172.297 33.424H178.537C180.057 33.424 181.257 33.528 182.137 33.736C183.033 33.944 183.681 34.312 184.081 34.84C184.497 35.352 184.705 36.072 184.705 37V39.952C184.705 40.976 184.481 41.776 184.033 42.352C183.601 42.928 182.905 43.336 181.945 43.576C181.001 43.816 179.721 43.936 178.105 43.936H176.041V49H172.297V33.424ZM178.417 41.368C179.393 41.368 180.081 41.256 180.481 41.032C180.881 40.792 181.081 40.392 181.081 39.832V37.336C181.081 36.824 180.889 36.488 180.505 36.328C180.137 36.168 179.425 36.088 178.369 36.088H176.041V41.368H178.417Z" fill="#66DDF9"/>
<path d="M27.4471 44.2215C27.4471 44.2215 14.4513 48.1854 7.57101 42.0765C0.690722 35.9677 3.77136 27.2243 3.77136 27.2243L15.6613 27.2978M15.6613 27.2978L27.5512 27.3712L41.8191 27.4594M15.6613 27.2978C15.6613 27.2978 28.2578 24.8962 27.6178 16.5871C27.0762 9.55506 17.7318 7.08951 17.7318 7.08951L41.944 7.23909" stroke="#66DDF9" stroke-width="5"/>
</svg>
